<svg width="221" height="81" viewBox="0 0 221 81" fill="none" xmlns="http://www.w3.org/2000/svg">
<path fill-rule="evenodd" clip-rule="evenodd" d="M10.4994 41.374L17.1647 48.0941V34.6522H10.4994V41.374ZM77.1517 48.0941L83.8169 41.374V34.6522H77.1517V48.0941ZM29.3989 45.808C29.3989 43.6332 29.787 41.5484 30.4969 39.6217V34.654H23.8317V54.816L30.4969 61.536V51.996C29.787 50.0693 29.3989 47.9845 29.3989 45.8098V45.808ZM37.1603 68.2561V60.5565C39.1329 61.9081 41.3916 62.8696 43.8256 63.3333V74.9761L37.1603 68.2561ZM50.4908 63.3315V74.978L57.156 68.2579V60.5439C55.1835 61.8991 52.9248 62.866 50.4908 63.3315ZM63.8212 39.6756V34.6522H70.4865V54.816L63.8212 61.536V51.9403C64.5169 50.028 64.8978 47.9629 64.8978 45.808C64.8978 43.653 64.5169 41.5879 63.8212 39.6756Z" fill="#008835"/>
<path fill-rule="evenodd" clip-rule="evenodd" d="M10.4995 41.374L3.83603 34.6522H10.4995V41.374ZM23.8299 54.8142L17.1647 48.0941V34.6522H23.8299V54.8142ZM70.4864 54.8142L77.1517 48.0941V34.6522H70.4864V54.8142ZM83.8169 41.374V34.6522H90.4821L83.8169 41.374ZM30.4952 61.536V51.996C31.7846 55.499 34.138 58.4842 37.1604 60.5565V68.2561L30.4952 61.536ZM47.1474 63.6461C46.0122 63.646 44.9019 63.5382 43.8256 63.3333V74.9762L47.1573 78.3371L50.489 74.9762V63.3279C49.4073 63.5346 48.2899 63.646 47.1474 63.6461ZM60.9974 34.6522H63.8212V39.6756C63.1524 37.8406 62.192 36.1475 60.9974 34.6522ZM57.156 60.5421V68.2561L63.8212 61.536V51.9403C62.539 55.4594 60.1855 58.4609 57.156 60.5421ZM30.4951 39.6199V34.6522H33.2975C32.1154 36.1332 31.1622 37.8064 30.4951 39.6199Z" fill="white"/>
<path d="M47.1484 29.5695C56.058 29.5695 63.3062 36.8539 63.3062 45.808C63.3062 54.7621 56.058 62.0465 47.1484 62.0465C38.2387 62.0465 30.9905 54.7621 30.9905 45.808C30.9905 36.8539 38.2387 29.5695 47.1484 29.5695Z" fill="white"/>
<path d="M59.5542 33.0526C60.0675 33.5558 60.5485 34.0896 60.9974 34.6522H90.4821L47.1591 78.3371L3.83604 34.6522H33.2975C33.7464 34.0896 34.2292 33.5558 34.7407 33.0526H0L47.1591 80.6034L94.3182 33.0526H59.556H59.5542Z" fill="#CF8A00"/>
<path d="M47.1483 29.5694C56.0579 29.5694 63.3062 36.8539 63.3062 45.8079C63.3062 54.762 56.0579 62.0464 47.1483 62.0464C38.2387 62.0464 30.9905 54.762 30.9905 45.8079C30.9905 36.8539 38.2387 29.5694 47.1483 29.5694ZM47.1483 27.9699C37.3445 27.9699 29.3988 35.957 29.3988 45.8079C29.3988 55.6589 37.3463 63.646 47.1483 63.646C56.9503 63.646 64.8978 55.6589 64.8978 45.8079C64.8978 35.957 56.9521 27.9699 47.1483 27.9699Z" fill="#CF8A00"/>
<path d="M57.6864 42.2874H58.362V41.373H57.6864V40.3374C57.6864 38.2457 55.9804 36.5448 53.8808 36.5448H51.8654V35.8156C51.8654 34.0599 50.4437 32.6311 48.6968 32.6311H42.8121V34.9172H43.49V36.5448H37.2027V38.8309H37.8806V41.2793H37.18V42.1937H37.8806V44.6626H37.2027V46.9487H37.8806V49.4176H37.18V50.332H37.8806V52.7804H37.2027V55.0665H43.49V56.701H42.8121V58.987H48.6968C50.4437 58.987 51.8654 57.5583 51.8654 55.8049V55.0687H53.8808C55.9781 55.0687 57.6864 53.3679 57.6864 51.2762V50.3366H58.362V49.4222H57.6864V48.462C57.6864 47.431 57.2701 46.496 56.5991 45.8125C57.2701 45.129 57.6864 44.194 57.6864 43.163V42.2988V42.2874ZM53.8808 38.8286C54.7247 38.8286 55.4117 39.5053 55.4117 40.3351V41.3707H54.7816V42.2851H55.4117V43.1493C55.4117 43.9814 54.7247 44.6558 53.8808 44.6558H51.7358C51.8199 44.37 51.8654 44.0705 51.8654 43.7596V38.8263H53.8808V38.8286ZM49.5907 52.7758H45.7647V46.9532H46.6928V47.6093H47.6026V46.9532H48.6968C49.1904 46.9532 49.5907 47.3556 49.5907 47.8517V52.7781V52.7758ZM48.6968 44.6603H47.6026V44.0111H46.6928V44.6603H45.7647V38.8309H49.5907V43.7642C49.5907 44.258 49.1904 44.6603 48.6968 44.6603V44.6603ZM45.7647 34.9172H48.6968C49.1904 34.9172 49.5907 35.3195 49.5907 35.8156V36.5448H45.7647V34.9172ZM40.1553 42.1937H40.7603V41.2793H40.1553V38.8309H43.49V44.6603H40.1553V42.1914V42.1937ZM40.1553 52.7781V50.3298H40.7603V49.4153H40.1553V46.9464H42.7461V46.9532H43.49V52.7758H40.1553V52.7781ZM49.5907 55.8003C49.5907 56.2941 49.1904 56.6964 48.6968 56.6964H45.7647V55.0619H49.5907V55.798V55.8003ZM55.4117 50.3298V51.2693C55.4117 52.1014 54.7247 52.7758 53.8808 52.7758H51.8654V47.8494C51.8654 47.5362 51.8177 47.2321 51.7335 46.9441H53.8808C54.7247 46.9441 55.4117 47.6208 55.4117 48.4506V49.4108H54.7816V50.3252H55.4117V50.3298Z" fill="#008835"/>
<path d="M48.2953 16.9996C48.864 17.3746 49.2416 18.0192 49.2416 18.7531C49.2416 18.9954 49.2007 19.2308 49.1233 19.4457C48.9004 20.0927 48.3704 20.5933 47.7085 20.7762C47.7517 22.1227 49.2484 23.204 51.0932 23.204C52.4467 23.204 53.609 22.6211 54.1527 21.7775C53.5453 21.4117 53.1382 20.7465 53.1382 19.983C53.1382 19.7635 53.1723 19.5509 53.2337 19.352C53.4976 18.4993 54.2892 17.8798 55.2241 17.8798C55.5493 17.8798 55.8542 17.9575 56.1271 18.0901C56.2795 17.9506 56.4206 17.8089 56.5548 17.6626C56.5798 17.6352 56.6048 17.6077 56.6298 17.5803C56.6958 17.5072 56.7572 17.434 56.8186 17.3608C56.8846 17.2808 56.9483 17.1985 57.0097 17.1162C57.0256 17.0934 57.0438 17.0705 57.0597 17.0477C57.1371 16.9425 57.2099 16.8351 57.2781 16.7253C57.7149 16.0372 57.9742 15.3034 58.0447 14.5513C55.2809 12.9853 51.8939 12.0618 48.2953 11.9017V16.9996Z" fill="#A32035"/>
<path d="M38.1888 18.0924C38.4618 17.9598 38.7689 17.8821 39.0919 17.8821C40.2429 17.8821 41.1755 18.8193 41.1755 19.9761C41.1755 20.2641 41.1186 20.5362 41.014 20.7854C40.8434 21.1991 40.5409 21.5466 40.161 21.7775C40.7024 22.6211 41.8693 23.2063 43.2227 23.2063C44.8355 23.2063 46.1821 22.3787 46.5233 21.27C46.5711 21.1123 46.5984 20.9477 46.6029 20.7785C45.7204 20.5362 45.0698 19.7246 45.0698 18.7599C45.0698 18.4833 45.1244 18.2204 45.2199 17.9781C45.3792 17.5757 45.6589 17.2351 46.0161 16.9996V14.1901H46.0183V11.9017C42.4198 12.0618 39.0327 12.9853 36.2667 14.5559C36.3873 15.8315 37.0492 17.0454 38.1865 18.0924H38.1888Z" fill="#A32035"/>
<path d="M30.8188 22.029C31.1099 21.8735 31.4421 21.7843 31.7969 21.7843C32.9479 21.7843 33.8805 22.7216 33.8805 23.8784C33.8805 24.1093 33.8441 24.3287 33.7736 24.5345C33.7077 24.7356 33.6121 24.9254 33.4916 25.0946C34.34 25.8764 35.9118 25.9175 37.3062 25.1106C38.1843 24.6008 38.8075 23.8601 39.0873 23.0988C39.2124 22.7536 39.267 22.4039 39.242 22.0724C39.192 22.077 39.1419 22.0792 39.0896 22.0792C37.9773 22.0792 37.0697 21.2014 37.0105 20.0972C36.4009 19.5806 35.8845 19.0182 35.4501 18.4261C35.4433 18.4147 35.4342 18.4056 35.4273 18.3941C35.3477 18.2844 35.2636 18.1747 35.1908 18.0604H35.1953C34.7517 17.3814 34.4265 16.6659 34.2217 15.9275C32.195 17.5323 30.8529 19.4594 30.3002 21.5466C30.4617 21.7135 30.6345 21.8735 30.8188 22.029Z" fill="#A32035"/>
<path d="M60.0942 15.9298C59.8417 16.8419 59.4004 17.7175 58.7863 18.529C58.7499 18.577 58.7135 18.625 58.6771 18.6708C58.5884 18.7851 58.4951 18.8971 58.3973 19.0091C58.3199 19.0983 58.2403 19.1874 58.1584 19.2743C58.0879 19.3497 58.0174 19.4252 57.9446 19.4983C57.8627 19.5806 57.7763 19.6629 57.6898 19.7452C57.6489 19.7841 57.6057 19.8229 57.5625 19.8618C57.476 19.9418 57.3919 20.0218 57.3009 20.0995C57.2895 20.3053 57.2486 20.5042 57.1803 20.6916C56.8937 21.5032 56.1249 22.0838 55.2195 22.0838C55.1695 22.0838 55.1194 22.0793 55.0694 22.077C54.992 23.1469 55.7313 24.3745 57.0074 25.1151C58.3996 25.9221 59.9668 25.8833 60.8176 25.1037C60.5742 24.7608 60.4309 24.3447 60.4309 23.8921C60.4309 23.7458 60.4468 23.6041 60.4764 23.4669V23.4578C60.4923 23.3915 60.5082 23.3275 60.5287 23.2657V23.2612C60.5469 23.204 60.5673 23.1491 60.5901 23.0966C60.6037 23.0646 60.6197 23.0326 60.6333 22.9983C60.6424 22.9823 60.6492 22.964 60.6583 22.948C60.9995 22.2622 61.7047 21.7912 62.5213 21.7912C62.8739 21.7912 63.2083 21.8804 63.4994 22.0358C63.6837 21.8804 63.8566 21.7204 64.0181 21.5535C63.4653 19.4663 62.1232 17.5392 60.0965 15.9344L60.0942 15.9298Z" fill="#A32035"/>
<path d="M67.8293 18.037C67.8293 13.8261 63.9896 10.3421 58.8192 9.77745C58.1732 8.9179 57.3338 8.12921 56.3102 7.43653C54.122 5.95746 51.3104 5.07047 48.2942 4.89216V3.68055H49.6726V1.39449H48.2942V0H46.0195V1.39449H44.641V3.68055H46.0195V4.89216C43.0032 5.07047 40.1917 5.95746 38.0034 7.43653C36.9798 8.12921 36.1404 8.9179 35.4944 9.77745C30.3195 10.3421 26.4866 13.8146 26.4866 18.037C26.4866 20.355 27.6558 22.5108 29.7235 24.0767C29.8213 25.142 30.7107 25.9787 31.798 25.9787C32.0028 25.9787 32.2007 25.9467 32.3895 25.8919L35.7424 29.9565C38.8269 27.3435 42.8076 25.7661 47.1591 25.7661C51.5106 25.7661 55.4913 27.3435 58.5758 29.9565L61.9287 25.8919C62.1153 25.9467 62.3154 25.9787 62.5202 25.9787C63.6052 25.9787 64.4969 25.1443 64.5947 24.079C66.6647 22.5131 67.8316 20.3596 67.8316 18.037H67.8293ZM37.3074 25.1169C35.913 25.9261 34.3412 25.885 33.4927 25.1009C33.7361 24.758 33.8817 24.3396 33.8817 23.8847C33.8817 22.728 32.949 21.7907 31.798 21.7907C31.4455 21.7907 31.1111 21.8798 30.8199 22.0353C29.5006 20.9334 28.7613 19.5206 28.7613 18.037C28.7613 15.4469 31.0383 13.1791 34.2183 12.3355C34.0568 12.9231 33.9727 13.5289 33.9727 14.1438C33.9727 16.3384 35.0645 18.4439 37.0139 20.0967C37.0731 21.2009 37.9784 22.0787 39.093 22.0787C39.1453 22.0787 39.1954 22.0741 39.2454 22.0719C39.3273 23.144 38.588 24.3762 37.3074 25.1192V25.1169ZM43.2239 23.2126C41.8681 23.2126 40.7012 22.6251 40.1598 21.7792C40.7672 21.4135 41.1766 20.7459 41.1766 19.9824C41.1766 18.8257 40.244 17.8884 39.093 17.8884C38.7677 17.8884 38.4629 17.9661 38.19 18.0987C36.9298 16.9374 36.2496 15.5703 36.2496 14.1438C36.2496 10.5296 40.5397 7.54855 46.0217 7.18278V17.006C45.4531 17.3809 45.0755 18.0255 45.0755 18.7594C45.0755 19.7241 45.726 20.5356 46.6086 20.7779C46.57 22.1267 45.0709 23.2126 43.2239 23.2126V23.2126ZM51.0921 23.2126C49.245 23.2126 47.746 22.1267 47.7073 20.7779C48.5899 20.5356 49.2404 19.7241 49.2404 18.7594C49.2404 18.0255 48.8628 17.3786 48.2942 17.006V7.18278C53.7785 7.54855 58.0663 10.5319 58.0663 14.1438C58.0663 15.5703 57.3862 16.9351 56.126 18.0987C55.853 17.9661 55.5459 17.8884 55.2229 17.8884C54.0719 17.8884 53.1393 18.8257 53.1393 19.9824C53.1393 20.7459 53.5487 21.4135 54.1561 21.7792C53.6147 22.6251 52.4478 23.2126 51.0921 23.2126V23.2126ZM60.4343 23.8847C60.4343 24.3396 60.5798 24.758 60.8232 25.1009C59.9748 25.885 58.4029 25.9261 57.0086 25.1169C55.7279 24.3739 54.9886 23.1417 55.0705 22.0696C55.1206 22.0741 55.1706 22.0764 55.2229 22.0764C56.3352 22.0764 57.2428 21.1986 57.302 20.0944C59.2491 18.4416 60.3433 16.3361 60.3433 14.1415C60.3433 13.5266 60.2591 12.9208 60.0976 12.3333C63.2754 13.1791 65.5546 15.4537 65.5546 18.0347C65.5546 19.5183 64.8153 20.9311 63.496 22.033C63.2048 21.8775 62.8705 21.7884 62.5179 21.7884C61.3669 21.7884 60.4343 22.7257 60.4343 23.8824V23.8847Z" fill="#CF8A00"/>
<path fill-rule="evenodd" clip-rule="evenodd" d="M105.257 44.6308H107.16L107.162 44.6326C108.975 44.6326 109.881 45.3248 109.881 46.7038V53.1409C109.881 55.1219 110.108 56.6668 110.561 57.7772H115.658C115.249 56.2774 115.046 54.7326 115.046 53.1409V47.1977C115.046 45.1553 113.958 43.7457 111.783 42.9652C113.959 42.3054 115.046 41.0598 115.046 39.2284V31.351C115.046 29.8206 114.422 28.5894 113.176 27.6593C111.929 26.7291 110.106 26.264 107.704 26.264H100.227V57.7754H105.257V44.6308ZM109.879 39.5438C109.879 40.9246 108.971 41.615 107.16 41.615H105.257V29.0545H107.16C108.973 29.0545 109.879 29.7611 109.879 31.1707V39.5438ZM128.671 56.8542C129.599 56.0286 130.064 55.0011 130.064 53.77H130.063V50.5145H125.577V54.2206C125.577 55.0913 125.057 55.5257 124.015 55.5257C122.973 55.5257 122.452 55.0913 122.452 54.2206V46.0728H130.268V37.204C130.268 35.9746 129.781 34.9382 128.807 34.0981C127.831 33.2581 126.189 32.8381 124.015 32.8381C121.84 32.8381 120.252 33.2581 119.256 34.0981C118.259 34.9382 117.761 35.9746 117.761 37.204V53.77C117.761 55.0011 118.248 56.0286 119.223 56.8542C120.197 57.6798 121.838 58.0926 124.015 58.0926C126.191 58.0926 127.742 57.6798 128.671 56.8542ZM122.452 43.5059V36.7534H122.454C122.454 35.8539 123.042 35.4032 124.084 35.4032C125.126 35.4032 125.647 35.8521 125.647 36.7534V43.5059H122.452ZM140.733 57.7772V56.5622C140.007 57.5825 138.739 58.0926 136.928 58.0926C133.847 58.0926 132.307 56.9678 132.307 54.7163V49.5393C132.307 48.1585 132.635 47.0715 133.292 46.2748C133.948 45.4798 135.183 44.7065 136.996 43.9566L140.259 42.6065V36.7534C140.259 35.8521 139.759 35.4032 138.764 35.4032C137.768 35.4032 137.269 35.8539 137.269 36.7534V40.4109H132.648V37.3392C132.648 36.0486 133.135 34.976 134.109 34.1198C135.083 33.2654 136.658 32.8363 138.833 32.8363C141.008 32.8363 142.649 33.2563 143.625 34.0964C144.6 34.9364 145.087 36.0035 145.087 37.2924V57.7754H140.737L140.733 57.7772ZM138.559 55.3905C139.736 55.3905 140.325 54.866 140.325 53.815V45.7574L138.83 46.3883C137.606 46.8985 136.994 47.8286 136.994 49.1787V53.9953C136.994 54.9254 137.515 55.3905 138.557 55.3905H138.559ZM147.868 57.7772H152.626V26.264H147.868V57.7772ZM173.131 52.51C173.131 54.1017 172.474 55.3761 171.159 56.3369C169.844 57.2977 167.919 57.7772 165.382 57.7772H158.314V26.264H165.179C167.625 26.264 169.461 26.7291 170.685 27.6593C171.909 28.5894 172.521 29.8206 172.521 31.351V37.5195C172.521 39.0806 171.614 40.2649 169.802 41.076C170.797 41.3771 171.604 41.871 172.214 42.5614C172.826 43.2518 173.131 44.0179 173.131 44.8579V52.51ZM164.976 39.8593C166.697 39.8593 167.559 39.1545 167.559 37.743V31.0355C167.559 29.6259 166.697 28.9193 164.976 28.9193H163.345V39.8593H164.976ZM165.179 55.1201C167.127 55.1201 168.101 54.3702 168.101 52.8687V44.7209C168.101 43.2211 167.127 42.4695 165.179 42.4695H163.343V55.1201H165.179ZM186.349 56.8542C187.277 56.0286 187.743 55.0011 187.743 53.77H187.741V50.5145H183.256V54.2206C183.256 55.0913 182.735 55.5257 181.693 55.5257C180.651 55.5257 180.13 55.0913 180.13 54.2206V46.0728H187.946V37.204C187.946 35.9746 187.459 34.9382 186.485 34.0981C185.509 33.2581 183.867 32.8381 181.693 32.8381C179.518 32.8381 177.93 33.2581 176.934 34.0981C175.937 34.9382 175.439 35.9746 175.439 37.204V53.77C175.439 55.0011 175.926 56.0286 176.901 56.8542C177.875 57.6798 179.516 58.0926 181.693 58.0926C183.869 58.0926 185.42 57.6798 186.349 56.8542ZM180.13 43.5059V36.7534H180.132C180.132 35.8539 180.72 35.4032 181.762 35.4032C182.804 35.4032 183.325 35.8521 183.325 36.7534V43.5059H180.13ZM198.684 54.9849V57.7754H196.986C192.998 57.7754 191.006 56.3351 191.006 53.4545V35.5565H189.375V33.1248H191.006V27.8395H195.764V33.1248H198.483V35.5565H195.764V53.3193C195.764 54.4297 196.556 54.9849 198.142 54.9849H198.684ZM215.403 40.4091H219.949V37.1139C219.949 35.9134 219.473 34.9003 218.522 34.0747C217.571 33.2491 216.031 32.8363 213.901 32.8363C211.771 32.8363 210.231 33.2491 209.28 34.0747C208.329 34.9003 207.853 35.9134 207.853 37.1139V40.1297C207.853 42.291 208.918 44.1062 211.048 45.5771L213.835 47.5131C214.47 47.935 214.911 48.3171 215.16 48.6614C215.41 49.0057 215.535 49.5681 215.535 50.3486V54.2206C215.535 55.0913 214.97 55.5257 213.837 55.5257C212.704 55.5257 212.138 55.0913 212.138 54.2206V50.5145H207.585V53.77C207.585 55.0012 208.072 56.0286 209.046 56.8542C210.021 57.6798 211.573 58.0926 213.838 58.0926C216.104 58.0926 217.735 57.6798 218.732 56.8542C219.728 56.0286 220.227 55.0012 220.227 53.77V50.1233C220.227 49.2527 220.056 48.4865 219.717 47.8268C219.378 47.167 219.037 46.6875 218.698 46.3865C218.359 46.0873 217.805 45.6673 217.034 45.1265L214.111 43.1004C213.476 42.6804 213.046 42.282 212.82 41.907C212.593 41.5339 212.481 40.9553 212.481 40.1747V36.7083C212.481 35.8683 212.913 35.4483 213.908 35.4483C214.904 35.4483 215.403 35.8683 215.403 36.7083V40.4091ZM205.209 57.7772H200.451V33.1265H205.209V57.7772ZM202.852 26.264C201.218 26.264 199.937 27.5583 199.937 29.2095C199.937 30.8156 201.262 32.1099 202.852 32.1099C204.442 32.1099 205.723 30.8607 205.723 29.2095C205.723 27.5583 204.486 26.264 202.852 26.264Z" fill="white"/>
</svg>
